HIERARCHY
ROOT Hips
{
  OFFSET 5.84602e-005 68.8428 3.50346
  CHANNELS 6 Xposition Yposition Zposition Zrotation Xrotation Yrotation
  JOINT Spine
  {
    OFFSET 0 8.597 -4.6522
    CHANNELS 3 Zrotation Xrotation Yrotation
    JOINT Spine1
    {
      OFFSET 0 7.8454 0.4098
      CHANNELS 3 Zrotation Xrotation Yrotation
      JOINT Spine2
      {
        OFFSET 0 9.7078 -2.1609
        CHANNELS 3 Zrotation Xrotation Yrotation
        JOINT Neck
        {
          OFFSET 0 21.8761 -0.4549
          CHANNELS 3 Zrotation Xrotation Yrotation
          JOINT Head
          {
            OFFSET 0 12.3537 3.3602
            CHANNELS 3 Zrotation Xrotation Yrotation
            End Site
            {
              OFFSET 0.0001 18.9506 0.5657
            }
          }
        }
        JOINT LeftShoulder
        {
          OFFSET 2.2086 21.1115 7.2329
          CHANNELS 3 Zrotation Xrotation Yrotation
          JOINT LeftArm
          {
            OFFSET 13.1193 3.0282 -4.8998
            CHANNELS 3 Zrotation Xrotation Yrotation
            JOINT LeftForeArm
            {
              OFFSET 27.4081 -0.0973053 -0.2375
              CHANNELS 3 Zrotation Xrotation Yrotation
              JOINT LeftHand
              {
                OFFSET 22.8641 0.0662994 -0.1369
                CHANNELS 3 Zrotation Xrotation Yrotation
                JOINT LeftHandIndex1
                {
                  OFFSET 8.8614 0.775009 2.4612
                  CHANNELS 3 Zrotation Xrotation Yrotation
                  JOINT LeftHandIndex2
                  {
                    OFFSET 3.3146 -0.808304 0.5841
                    CHANNELS 3 Zrotation Xrotation Yrotation
                    JOINT LeftHandIndex3
                    {
                      OFFSET 2.2628 -0.552002 0.3989
                      CHANNELS 3 Zrotation Xrotation Yrotation
                      End Site
                      {
                        OFFSET 1.6102 -0.4807 0.2612
                      }
                    }
                  }
                }
                JOINT LeftHandMiddle1
                {
                  OFFSET 8.9937 0.895004 0.2143
                  CHANNELS 3 Zrotation Xrotation Yrotation
                  JOINT LeftHandMiddle2
                  {
                    OFFSET 4.0984 0.0113983 -0.0242
                    CHANNELS 3 Zrotation Xrotation Yrotation
                    JOINT LeftHandMiddle3
                    {
                      OFFSET 2.2716 0.00689697 -0.0138001
                      CHANNELS 3 Zrotation Xrotation Yrotation
                      End Site
                      {
                        OFFSET 2.0404 -0.1441 0.0027
                      }
                    }
                  }
                }
                JOINT LeftHandRing1
                {
                  OFFSET 8.5234 0.597198 -2.0164
                  CHANNELS 3 Zrotation Xrotation Yrotation
                  JOINT LeftHandRing2
                  {
                    OFFSET 3.7188 -0.188293 -0.2328
                    CHANNELS 3 Zrotation Xrotation Yrotation
                    JOINT LeftHandRing3
                    {
                      OFFSET 2.1191 -0.106598 -0.1332
                      CHANNELS 3 Zrotation Xrotation Yrotation
                      End Site
                      {
                        OFFSET 1.8737 -0.2304 -0.0886
                      }
                    }
                  }
                }
                JOINT LeftHandPinky1
                {
                  OFFSET 7.9094 -0.601089 -3.4825
                  CHANNELS 3 Zrotation Xrotation Yrotation
                  JOINT LeftHandPinky2
                  {
                    OFFSET 2.2874 -0.477005 -0.6314
                    CHANNELS 3 Zrotation Xrotation Yrotation
                    JOINT LeftHandPinky3
                    {
                      OFFSET 1.6774 -0.349396 -0.4633
                      CHANNELS 3 Zrotation Xrotation Yrotation
                      End Site
                      {
                        OFFSET 1.4888 -0.4091 -0.3416
                      }
                    }
                  }
                }
                JOINT LeftHandThumb1
                {
                  OFFSET 1.833 -1.3875 1.3896
                  CHANNELS 3 Zrotation Xrotation Yrotation
                  JOINT LeftHandThumb2
                  {
                    OFFSET 3.4129 -1.121 2.5732
                    CHANNELS 3 Zrotation Xrotation Yrotation
                    JOINT LeftHandThumb3
                    {
                      OFFSET 2.2474 -0.804199 1.6192
                      CHANNELS 3 Zrotation Xrotation Yrotation
                      End Site
                      {
                        OFFSET 1.6527 -0.5689 1.1317
                      }
                    }
                  }
                }
              }
            }
          }
        }
        JOINT RightShoulder
        {
          OFFSET -2.2086 21.1115 7.2329
          CHANNELS 3 Zrotation Xrotation Yrotation
          JOINT RightArm
          {
            OFFSET -13.1216 3.0287 -4.9007
            CHANNELS 3 Zrotation Xrotation Yrotation
            JOINT RightForeArm
            {
              OFFSET -27.4081 -0.0973053 -0.2375
              CHANNELS 3 Zrotation Xrotation Yrotation
              JOINT RightHand
              {
                OFFSET -22.8641 0.0664063 -0.1369
                CHANNELS 3 Zrotation Xrotation Yrotation
                JOINT RightHandIndex1
                {
                  OFFSET -8.8614 0.774994 2.4612
                  CHANNELS 3 Zrotation Xrotation Yrotation
                  JOINT RightHandIndex2
                  {
                    OFFSET -3.3146 -0.808304 0.5841
                    CHANNELS 3 Zrotation Xrotation Yrotation
                    JOINT RightHandIndex3
                    {
                      OFFSET -2.2628 -0.552002 0.3989
                      CHANNELS 3 Zrotation Xrotation Yrotation
                      End Site
                      {
                        OFFSET -1.6102 -0.4807 0.2612
                      }
                    }
                  }
                }
                JOINT RightHandMiddle1
                {
                  OFFSET -8.9937 0.894989 0.2143
                  CHANNELS 3 Zrotation Xrotation Yrotation
                  JOINT RightHandMiddle2
                  {
                    OFFSET -4.0984 0.0113983 -0.0242
                    CHANNELS 3 Zrotation Xrotation Yrotation
                    JOINT RightHandMiddle3
                    {
                      OFFSET -2.2716 0.00691223 -0.0138001
                      CHANNELS 3 Zrotation Xrotation Yrotation
                      End Site
                      {
                        OFFSET -2.0404 -0.1441 0.0027
                      }
                    }
                  }
                }
                JOINT RightHandRing1
                {
                  OFFSET -8.5234 0.597198 -2.0164
                  CHANNELS 3 Zrotation Xrotation Yrotation
                  JOINT RightHandRing2
                  {
                    OFFSET -3.7188 -0.188309 -0.2328
                    CHANNELS 3 Zrotation Xrotation Yrotation
                    JOINT RightHandRing3
                    {
                      OFFSET -2.1191 -0.106598 -0.1332
                      CHANNELS 3 Zrotation Xrotation Yrotation
                      End Site
                      {
                        OFFSET -1.8737 -0.2304 -0.0886
                      }
                    }
                  }
                }
                JOINT RightHandPinky1
                {
                  OFFSET -7.9094 -0.601105 -3.4825
                  CHANNELS 3 Zrotation Xrotation Yrotation
                  JOINT RightHandPinky2
                  {
                    OFFSET -2.2874 -0.477005 -0.6314
                    CHANNELS 3 Zrotation Xrotation Yrotation
                    JOINT RightHandPinky3
                    {
                      OFFSET -1.6774 -0.349396 -0.4633
                      CHANNELS 3 Zrotation Xrotation Yrotation
                      End Site
                      {
                        OFFSET -1.4888 -0.4091 -0.3416
                      }
                    }
                  }
                }
                JOINT RightHandThumb1
                {
                  OFFSET -1.833 -1.38751 1.3896
                  CHANNELS 3 Zrotation Xrotation Yrotation
                  JOINT RightHandThumb2
                  {
                    OFFSET -3.41299 -1.12099 2.5732
                    CHANNELS 3 Zrotation Xrotation Yrotation
                    JOINT RightHandThumb3
                    {
                      OFFSET -2.24741 -0.804108 1.6192
                      CHANNELS 3 Zrotation Xrotation Yrotation
                      End Site
                      {
                        OFFSET -1.6527 -0.5689 1.1317
                      }
                    }
                  }
                }
              }
            }
          }
        }
      }
    }
  }
  JOINT RightUpLeg
  {
    OFFSET -9.1966 3.8861 -0.7581
    CHANNELS 3 Zrotation Xrotation Yrotation
    JOINT RightLeg
    {
      OFFSET -0.7359 -41.0265 0
      CHANNELS 3 Zrotation Xrotation Yrotation
      JOINT RightFoot
      {
        OFFSET 0 -40.2855 0
        CHANNELS 3 Zrotation Xrotation Yrotation
        JOINT RightToeBase
        {
          OFFSET 0 -5.6122 11.7359
          CHANNELS 3 Zrotation Xrotation Yrotation
          End Site
          {
            OFFSET 0 0 7.8731
          }
        }
      }
    }
  }
  JOINT LeftUpLeg
  {
    OFFSET 9.1965 3.8864 -0.7581
    CHANNELS 3 Zrotation Xrotation Yrotation
    JOINT LeftLeg
    {
      OFFSET 0.7359 -41.0268 0
      CHANNELS 3 Zrotation Xrotation Yrotation
      JOINT LeftFoot
      {
        OFFSET 0 -40.2855 0
        CHANNELS 3 Zrotation Xrotation Yrotation
        JOINT LeftToeBase
        {
          OFFSET 0 -5.6122 11.7359
          CHANNELS 3 Zrotation Xrotation Yrotation
          End Site
          {
            OFFSET 0 0 7.8731
          }
        }
      }
    }
  }
}
MOTION
Frames:	6
Frame Time:	0.0333333
1.62983 41.6112 2.94139 0 33.3493 -0 -1.27926 -1.01651 -1.77605 -2.59001 -1.99263 -3.57516 -2.59001 -1.99262 -3.57516 -2.96147e-005 7.59302 -3.94512e-005 -0.0618818 12.7181 0.00958642 -11.1803 -4.50409 -39.7667 -41.4681 -5.81572 23.2802 -20.5647 15.0825 -56.6962 33.2178 -30.6159 -16.1906 1.98785e-016 -1.2921e-015 3.18055e-015 8.91889e-009 2.46779e-007 -2.80074e-007 -1.98785e-016 -9.93923e-017 -6.36111e-015 1.98785e-016 -1.2921e-015 3.18055e-015 -0.0146441 -9.01807e-005 2.11909e-006 -0 -5.96354e-016 -0 1.98785e-016 -1.2921e-015 3.18055e-015 -0.0187354 -0.00117762 6.50441e-005 1.98785e-016 -8.94531e-016 -3.18055e-015 1.98785e-016 -1.2921e-015 3.18055e-015 -0.0122653 -0.00324809 0.000685487 -7.75719e-009 -2.46503e-007 2.79984e-007 1.98785e-016 -1.2921e-015 3.18055e-015 8.91889e-009 2.46779e-007 -2.80074e-007 -1.98785e-016 -9.93923e-017 -6.36111e-015 47.6255 -4.39823 -14.0615 33.7755 -4.2722 -15.3306 36.5199 15.9134 9.78543 46.4737 -45.1704 29.0192 -1.59028e-015 1.51076e-014 6.65929e-015 -2.37247e-030 1.59028e-014 8.54774e-015 4.55184e-031 1.19271e-014 -2.18663e-015 -1.59028e-015 1.51076e-014 6.65929e-015 0.0150022 -9.72222e-005 -2.89643e-007 1.59028e-015 7.95139e-016 4.67144e-015 -1.59028e-015 1.51076e-014 6.65929e-015 0.0190036 -0.00118731 -5.74155e-005 -3.18055e-015 1.59028e-015 3.27995e-015 -1.59028e-015 1.51076e-014 6.65929e-015 0.0122792 -0.00325001 -0.000684313 3.18055e-015 0 6.95746e-016 -1.59028e-015 1.51076e-014 6.65929e-015 -2.37247e-030 1.59028e-014 8.54774e-015 4.55184e-031 1.19271e-014 -2.18663e-015 -59.6522 -17.8555 -20.3548 -110.753 89.7038 108.86 50.3787 38.4936 -56.2404 -7.28577e-007 -1.49438e-007 -2.2965e-006 59.6119 -17.886 20.2784 116.285 89.7559 -114.383 -50.4814 38.4539 56.2983 -7.9294e-007 -2.1465e-006 -2.44688e-006 
1.62984 41.665 2.56954 0 33.9878 -0 -1.27927 -1.0165 -1.77605 -2.59002 -1.99264 -3.57518 -2.59003 -1.99263 -3.57518 2.76148e-005 6.63875 -1.1643e-005 -0.0601723 11.1794 0.00958631 -11.0282 -4.78311 -39.8116 -41.4785 -5.81998 23.2555 -20.6617 15.2862 -57.2347 33.5245 -30.4908 -15.9436 7.55382e-015 1.05356e-014 -0 6.75868e-015 9.44227e-015 -3.18055e-015 7.15625e-015 9.54166e-015 -6.36111e-015 7.55382e-015 1.05356e-014 -0 -0.0146047 -8.78235e-005 3.96059e-006 -3.97569e-016 -2.98177e-016 -0 7.55382e-015 1.05356e-014 -0 -0.0187454 -0.00117228 5.9878e-005 1.10348e-032 1.98785e-016 -3.18055e-015 7.55382e-015 1.05356e-014 -0 -0.0122381 -0.00323995 0.000677395 1.71118e-009 -2.36333e-007 2.69271e-007 7.55382e-015 1.05356e-014 -0 6.75868e-015 9.44227e-015 -3.18055e-015 7.15625e-015 9.54166e-015 -6.36111e-015 47.6255 -4.39818 -14.0615 33.7431 -4.29429 -15.6242 36.5199 15.9135 9.78543 46.4737 -45.1704 29.0193 7.31053e-032 7.95139e-016 -5.26779e-015 -0 0 1.2921e-015 2.48282e-032 7.95139e-016 -1.78906e-015 7.31053e-032 7.95139e-016 -5.26779e-015 0.0150039 -9.0791e-005 4.73581e-007 -1.59028e-015 1.43125e-014 -4.17448e-015 7.31053e-032 7.95139e-016 -5.26779e-015 0.0189985 -0.00118812 -5.86037e-005 -1.59028e-015 0 -1.78906e-014 7.31053e-032 7.95139e-016 -5.26779e-015 0.0122712 -0.00324399 -0.000686278 1.0483e-031 7.95139e-016 -7.55382e-015 7.31053e-032 7.95139e-016 -5.26779e-015 -0 0 1.2921e-015 2.48282e-032 7.95139e-016 -1.78906e-015 -59.694 -18.7269 -20.6061 -150.632 89.3588 148.726 50.8658 38.2855 -56.5028 -1.19373e-006 -1.82814e-006 -1.7345e-006 59.6534 -18.7561 20.5298 155.454 89.3831 -153.54 -50.9667 38.2454 56.5589 -7.92861e-007 -2.14673e-006 -2.4467e-006 
1.62984 41.7198 2.1978 0 34.6262 -0 -1.27927 -1.01652 -1.77605 -2.59002 -1.99262 -3.57518 -2.59002 -1.99263 -3.57518 -7.40156e-005 5.68397 2.86424e-005 -0.0584432 9.63408 0.0095985 -10.8762 -5.06226 -39.8559 -41.4888 -5.82422 23.2308 -20.7568 15.4907 -57.7732 33.8302 -30.3646 -15.6978 6.95746e-015 1.0138e-014 -3.18055e-015 7.35503e-015 1.02374e-014 -0 7.15625e-015 1.07344e-014 -6.36111e-015 6.95746e-015 1.0138e-014 -3.18055e-015 -0.0145964 -8.8226e-005 -1.51999e-006 -3.97569e-016 0 6.36111e-015 6.95746e-015 1.0138e-014 -3.18055e-015 -0.0187166 -0.00116794 5.76627e-005 -3.97569e-016 -3.97569e-016 -3.18055e-015 6.95746e-015 1.0138e-014 -3.18055e-015 -0.0122402 -0.00323934 0.000679911 1.98785e-016 -1.98785e-016 -6.36111e-015 6.95746e-015 1.0138e-014 -3.18055e-015 7.35503e-015 1.02374e-014 -0 7.15625e-015 1.07344e-014 -6.36111e-015 47.6255 -4.39819 -14.0615 33.7107 -4.31623 -15.9179 36.5199 15.9135 9.78545 46.4737 -45.1704 29.0193 -2.38542e-015 0 2.08724e-015 -2.38542e-015 -1.19271e-015 -1.2424e-015 -2.38542e-015 -1.98785e-015 -4.77083e-015 -2.38542e-015 0 2.08724e-015 0.0150041 -8.90736e-005 -7.42659e-007 4.06907e-032 -3.97569e-016 5.86415e-015 -2.38542e-015 0 2.08724e-015 0.0190042 -0.0012008 -6.11994e-005 1.59028e-015 -7.95139e-016 -1.38155e-014 -2.38542e-015 0 2.08724e-015 0.0122765 -0.0032521 -0.000680965 -7.95139e-016 1.59028e-015 1.21756e-014 -2.38542e-015 0 2.08724e-015 -2.38542e-015 -1.19271e-015 -1.2424e-015 -2.38542e-015 -1.98785e-015 -4.77083e-015 -59.7394 -19.5983 -20.8593 -160.837 88.9278 158.917 51.3504 38.0756 -56.7622 1.39105e-006 2.59452e-006 4.44418e-006 59.6986 -19.6261 20.7832 163.855 88.9439 -161.927 -51.4494 38.035 56.8165 7.27807e-007 -1.49712e-007 2.29676e-006 
1.62985 41.7757 1.82618 0 35.2645 -0 -1.27927 -1.0165 -1.77605 -2.59002 -1.99264 -3.57518 -2.59003 -1.99263 -3.57518 -2.00867e-005 4.72681 1.10423e-005 -0.0559334 8.08257 0.00852898 -10.7245 -5.3415 -39.8995 -41.4992 -5.82845 23.206 -20.85 15.696 -58.3118 34.1348 -30.2373 -15.453 -1.98785e-016 0 1.27222e-014 1.98785e-016 1.98785e-016 9.54166e-015 -1.98785e-016 1.98785e-016 1.27222e-014 -1.98785e-016 0 1.27222e-014 -0.0145937 -8.87818e-005 -2.65216e-006 -2.08223e-008 2.16105e-007 -2.47796e-007 -1.98785e-016 0 1.27222e-014 -0.0187481 -0.00117381 5.8805e-005 7.15625e-015 1.0635e-014 9.54166e-015 -1.98785e-016 0 1.27222e-014 -0.0122604 -0.00324523 0.000670937 3.97569e-016 -1.98785e-015 6.36111e-015 -1.98785e-016 0 1.27222e-014 1.98785e-016 1.98785e-016 9.54166e-015 -1.98785e-016 1.98785e-016 1.27222e-014 47.6255 -4.39818 -14.0615 33.6779 -4.338 -16.2115 36.52 15.9134 9.78541 46.4737 -45.1704 29.0192 2.38542e-015 1.19271e-015 -2.23633e-015 3.18055e-015 7.95139e-016 1.14301e-015 2.38542e-015 7.95139e-016 1.2921e-015 2.38542e-015 1.19271e-015 -2.23633e-015 0.0149884 -9.48072e-005 -6.10215e-006 7.95139e-016 1.19271e-015 6.95746e-015 2.38542e-015 1.19271e-015 -2.23633e-015 0.0190146 -0.00119244 -5.83212e-005 -1.79315e-032 7.95139e-016 1.2921e-015 2.38542e-015 1.19271e-015 -2.23633e-015 0.012289 -0.00325683 -0.000679719 6.08324e-007 2.56018e-007 1.95463e-007 2.38542e-015 1.19271e-015 -2.23633e-015 3.18055e-015 7.95139e-016 1.14301e-015 2.38542e-015 7.95139e-016 1.2921e-015 -59.7886 -20.4695 -21.1146 -165.132 88.4823 163.198 51.8325 37.8638 -57.0187 8.60032e-007 -4.44464e-006 2.59391e-006 59.7476 -20.4959 21.0386 167.291 88.4954 -165.35 -51.9296 37.8227 57.0712 7.27674e-007 -1.49368e-007 2.29682e-006 
1.62986 41.8325 1.4547 0 35.9026 -0 -1.27926 -1.01649 -1.77604 -2.59001 -1.99262 -3.57516 -2.59001 -1.99261 -3.57516 8.78393e-005 3.76811 -7.53562e-005 -0.05345 6.52545 0.00760519 -10.5729 -5.62087 -39.9423 -41.5095 -5.83271 23.1813 -20.9413 15.9022 -58.8506 34.4383 -30.1089 -15.2093 -0 -7.95139e-016 -0 -1.98785e-016 -1.39149e-015 3.18055e-015 -1.98785e-016 -1.78906e-015 3.18055e-015 -0 -7.95139e-016 -0 -0.014576 -8.66788e-005 -1.39377e-006 -1.98785e-016 4.96962e-016 -3.18055e-015 -0 -7.95139e-016 -0 -0.0187496 -0.00117458 6.07035e-005 1.98785e-016 1.98785e-016 6.36111e-015 -0 -7.95139e-016 -0 -0.0122614 -0.00324644 0.000671246 -5.96354e-016 -1.2921e-015 -0 -0 -7.95139e-016 -0 -1.98785e-016 -1.39149e-015 3.18055e-015 -1.98785e-016 -1.78906e-015 3.18055e-015 47.6255 -4.39824 -14.0615 33.6452 -4.3596 -16.5052 36.5199 15.9134 9.78543 46.4737 -45.1704 29.0193 -1.77591e-032 3.97569e-016 2.55935e-015 7.95139e-016 7.95139e-016 2.5345e-015 7.95139e-016 7.95139e-016 2.60905e-015 -1.77591e-032 3.97569e-016 2.55935e-015 0.0149864 -8.47472e-005 9.6784e-006 0 0 -1.41634e-015 -1.77591e-032 3.97569e-016 2.55935e-015 0.0189933 -0.00118957 -5.81051e-005 5.47205e-007 1.96731e-007 1.952e-007 -1.77591e-032 3.97569e-016 2.55935e-015 0.0122826 -0.00325753 -0.000681502 7.95139e-016 7.95139e-016 7.52897e-015 -1.77591e-032 3.97569e-016 2.55935e-015 7.95139e-016 7.95139e-016 2.5345e-015 7.95139e-016 7.95139e-016 2.60905e-015 -59.842 -21.3399 -21.3721 -167.471 88.0324 165.523 52.312 37.6501 -57.2722 6.62279e-007 2.44495e-006 2.14849e-006 59.8005 -21.3652 21.2962 169.146 88.0441 -167.191 -52.4073 37.6087 57.3229 1.92092e-006 -1.98177e-006 4.03611e-006 
1.62986 41.8904 1.08337 0 36.5405 -0 -1.27926 -1.01656 -1.77605 -2.59002 -1.99263 -3.57518 -2.59002 -1.99263 -3.57517 -4.25232e-006 2.80907 2.38016e-006 -0.0510015 4.96325 0.00662422 -10.4214 -5.90028 -39.9844 -41.5199 -5.83691 23.1566 -21.0305 16.1091 -59.3893 34.7408 -29.9793 -14.9669 -3.97569e-016 -2.98177e-016 6.36111e-015 -7.95139e-016 -5.96354e-016 6.36111e-015 -1.98785e-016 -1.98785e-016 6.36111e-015 -3.97569e-016 -2.98177e-016 6.36111e-015 -0.0145885 -8.95383e-005 -6.44336e-007 5.96354e-016 -9.93923e-017 6.36111e-015 -3.97569e-016 -2.98177e-016 6.36111e-015 -0.0187857 -0.0011822 6.385e-005 4.00571e-008 -1.95217e-007 2.2612e-007 -3.97569e-016 -2.98177e-016 6.36111e-015 -0.012254 -0.00324291 0.000675843 3.94448e-008 -1.9501e-007 2.26073e-007 -3.97569e-016 -2.98177e-016 6.36111e-015 -7.95139e-016 -5.96354e-016 6.36111e-015 -1.98785e-016 -1.98785e-016 6.36111e-015 47.6255 -4.39818 -14.0615 33.6132 -4.38103 -16.7988 36.5199 15.9134 9.78544 46.4737 -45.1704 29.0192 2.38542e-015 -3.97569e-016 -7.65321e-015 2.54559e-006 -8.97291e-007 2.40851e-006 -7.95139e-016 -5.96354e-016 7.72775e-015 2.38542e-015 -3.97569e-016 -7.65321e-015 0.0149939 -9.17089e-005 -3.9588e-006 -2.38542e-015 -1.98785e-016 1.3418e-015 2.38542e-015 -3.97569e-016 -7.65321e-015 0.0189804 -0.00119567 -6.33055e-005 -1.59028e-015 0 -1.93815e-015 2.38542e-015 -3.97569e-016 -7.65321e-015 0.0122702 -0.00325497 -0.000677078 9.91405e-033 -1.98785e-016 2.85753e-015 2.38542e-015 -3.97569e-016 -7.65321e-015 2.54559e-006 -8.97291e-007 2.40851e-006 -7.95139e-016 -5.96354e-016 7.72775e-015 -59.899 -22.2103 -21.6318 -168.94 87.5802 166.978 52.7891 37.4347 -57.5229 7.2791e-007 1.47758e-007 2.29683e-006 59.8574 -22.2339 21.5561 170.305 87.5916 -168.335 -52.8806 37.3919 57.5707 -7.92273e-007 -2.14852e-006 -2.44548e-006 
